<svg width="70" height="70" viewBox="0 0 70 70" fill="none" xmlns="http://www.w3.org/2000/svg">
<path d="M34.9998 69.9996C54.3297 69.9996 69.9996 54.3297 69.9996 34.9998C69.9996 15.67 54.3297 0 34.9998 0C15.6699 0 0 15.67 0 34.9998C0 54.3297 15.6699 69.9996 34.9998 69.9996Z" fill="white"/>
<path d="M30.5798 17.4251L32.0509 15.954V26.5458C32.0509 28.3344 33.5011 29.7844 35.2897 29.7844C37.0783 29.7844 38.5286 28.3348 38.5286 26.5458V15.9537L40 17.4248L44.5798 12.845L35.2897 3.55566L33.0002 5.84519L32.9995 5.8459L26 12.845L30.5798 17.4251Z" fill="#186DFD"/>
<path d="M38.5286 54.0465V43.4543C38.5286 41.6657 37.079 40.2158 35.2901 40.2158C33.5011 40.2158 32.0516 41.6654 32.0516 43.4543V54.0472L30.5798 52.5754L26 57.1552L35.2901 66.4445L44.5798 57.1552L40 52.5754L38.5286 54.0465Z" fill="#186DFD"/>
<path d="M48.155 22.1334L50.1646 22.6718L40.9918 27.9677C39.4429 28.862 38.9123 30.8429 39.8066 32.3919C40.7009 33.9409 42.6814 34.472 44.2307 33.5776L53.4037 28.2815L52.8655 30.2913L59.1215 31.9676L62.5213 19.2775L59.3938 18.4395L59.3928 18.4393L49.8317 15.8771L48.155 22.1334Z" fill="#186DFD"/>
<path d="M20.4145 47.3279L29.5876 42.0318C31.1365 41.1375 31.6674 39.1572 30.773 37.6079C29.8785 36.0587 27.8984 35.5281 26.3491 36.4226L17.1754 41.719L17.7141 39.7085L11.458 38.0322L8.05824 50.7223L20.7479 54.1227L22.4242 47.8666L20.4145 47.3279Z" fill="#186DFD"/>
<path d="M17.7143 30.2918L17.1758 28.2822L26.3486 33.5781C27.8976 34.4724 29.8784 33.9414 30.7727 32.3925C31.667 30.8435 31.1367 28.8627 29.5874 27.9683L20.4144 22.6722L22.4241 22.1334L20.7478 15.8774L8.05794 19.2781L8.89596 22.4057L8.89623 22.4066L11.4579 31.9679L17.7143 30.2918Z" fill="#186DFD"/>
<path d="M53.4036 41.7186L44.2305 36.4225C42.6816 35.5282 40.7011 36.0586 39.8067 37.6079C38.9122 39.1572 39.4428 41.1373 40.992 42.0318L50.1657 47.3282L48.1552 47.8669L49.8315 54.123L62.5214 50.7222L59.1214 38.0324L52.8653 39.7087L53.4036 41.7186Z" fill="#186DFD"/>
</svg>
