<svg width="70" height="70" viewBox="0 0 70 70" fill="none" xmlns="http://www.w3.org/2000/svg">
<g clip-path="url(#clip0_1369_7885)">
<path d="M34.9998 69.9996C54.3297 69.9996 69.9996 54.3297 69.9996 34.9998C69.9996 15.67 54.3297 0 34.9998 0C15.6699 0 0 15.67 0 34.9998C0 54.3297 15.6699 69.9996 34.9998 69.9996Z" fill="white"/>
<path d="M30.5798 17.4251L32.0509 15.954V26.5458C32.0509 28.3344 33.5011 29.7844 35.2897 29.7844C37.0783 29.7844 38.5286 28.3348 38.5286 26.5458V15.9537L40 17.4248L44.5798 12.845L35.2897 3.55566L33.0002 5.84519L26 12.845L30.5798 17.4251Z" fill="#CACACA"/>
<path d="M38.5286 54.0465V43.4543C38.5286 41.6657 37.079 40.2158 35.2901 40.2158C33.5011 40.2158 32.0516 41.6654 32.0516 43.4543V54.0472L30.5798 52.5754L26 57.1552L35.2901 66.4445L44.5798 57.1552L40 52.5754L38.5286 54.0465Z" fill="#CACACA"/>
<path d="M48.1549 22.1333L50.1645 22.6717L40.9917 27.9676C39.4428 28.8619 38.9122 30.8428 39.8065 32.3918C40.7008 33.9408 42.6813 34.4719 44.2306 33.5775L53.4036 28.2814L52.8654 30.2912L59.1214 31.9675L62.5212 19.2774L59.3937 18.4394L59.3927 18.4392L49.8316 15.877L48.1549 22.1333Z" fill="#CACACA"/>
<path d="M20.4144 47.3282L29.5875 42.0321C31.1364 41.1378 31.6673 39.1575 30.7729 37.6082C29.8784 36.059 27.8983 35.5284 26.349 36.4229L17.1753 41.7193L17.714 39.7088L11.4579 38.0325L8.05811 50.7226L20.7478 54.123L22.4241 47.8669L20.4144 47.3282Z" fill="#CACACA"/>
<path d="M17.7145 30.2914L17.176 28.2818L26.3488 33.5777C27.8978 34.472 29.8786 33.941 30.7729 32.3921C31.6672 30.8431 31.1369 28.8623 29.5876 27.9679L20.4146 22.6718L22.4243 22.133L20.748 15.877L8.05811 19.2777L8.89613 22.4053L11.4581 31.9675L17.7145 30.2914Z" fill="#CACACA"/>
<path d="M53.4036 41.7189L44.2305 36.4228C42.6816 35.5285 40.7011 36.0589 39.8067 37.6082C38.9122 39.1575 39.4428 41.1376 40.992 42.0321L50.1657 47.3285L48.1552 47.8672L49.8315 54.1233L62.5214 50.7225L59.1214 38.0327L52.8653 39.709L53.4036 41.7189Z" fill="#CACACA"/>
</g>
<defs>
<clipPath id="clip0_1369_7885">
<rect width="70" height="70" fill="white"/>
</clipPath>
</defs>
</svg>
