<svg width="70" height="70" viewBox="0 0 70 70" fill="none" xmlns="http://www.w3.org/2000/svg">
<g clip-path="url(#clip0_1362_7871)">
<mask id="mask0_1362_7871" style="mask-type:luminance" maskUnits="userSpaceOnUse" x="0" y="0" width="70" height="70">
<path d="M70 0H0V70H70V0Z" fill="white"/>
</mask>
<g mask="url(#mask0_1362_7871)">
<path d="M34.9995 0C15.6693 0 -0.000352766 15.6683 5.95648e-09 35.0012C-0.000352766 54.3299 15.669 69.9996 34.9995 69.9996C54.3303 69.9996 69.9986 54.3292 70 34.9998C69.9986 15.6683 54.3289 0 34.9995 0Z" fill="#E39237"/>
<path d="M17.3232 59.9983H39.6915L52.6769 47.0122V9.99805H17.3236L17.3232 59.9983Z" fill="white"/>
<path d="M37.7012 45.1074V55.3906L47.9836 45.1074H37.7012Z" fill="#E39237"/>
<path d="M42.2023 14.918H21.8887V17.3123H42.2023V14.918Z" fill="#E39237"/>
<path d="M47.4058 20.9043H21.8887V23.2986H47.4058V20.9043Z" fill="#E39237"/>
<path d="M45.2892 26.8926H21.8887V29.2869H45.2892V26.8926Z" fill="#E39237"/>
<path d="M37.787 32.8809H21.8887V35.2752H37.787V32.8809Z" fill="#E39237"/>
</g>
</g>
<defs>
<clipPath id="clip0_1362_7871">
<rect width="70" height="70" fill="white"/>
</clipPath>
</defs>
</svg>
