<svg width="70" height="70" viewBox="0 0 70 70" fill="none" xmlns="http://www.w3.org/2000/svg">
<circle cx="35" cy="35" r="35" fill="white"/>
<path fill-rule="evenodd" clip-rule="evenodd" d="M47.4056 30.9397L50.6355 27.7098C51.7906 26.5547 52.3682 25.9772 52.6769 25.3541C53.2643 24.1687 53.2643 22.777 52.6769 21.5916C52.3682 20.9685 51.7906 20.391 50.6355 19.2359C49.4804 18.0808 48.9029 17.5032 48.2798 17.1945C47.0944 16.6071 45.7027 16.6071 44.5172 17.1945C43.8942 17.5032 43.3167 18.0808 42.1616 19.2359L38.8844 22.513C41.006 25.9492 43.9251 28.8446 47.4056 30.9397ZM35.5081 25.8893L20.6724 40.725C19.7719 41.6255 19.3217 42.0758 19.0256 42.6289C18.7296 43.182 18.6047 43.8064 18.355 45.0551L17.0513 51.5737C16.9104 52.2783 16.8399 52.6306 17.0403 52.8311C17.2407 53.0315 17.5931 52.961 18.2977 52.8201L24.8162 51.5164L24.8163 51.5164C26.065 51.2666 26.6894 51.1418 27.2425 50.8457C27.7956 50.5497 28.2459 50.0995 29.1464 49.199L44.0215 34.3238C40.6396 32.1068 37.746 29.2339 35.5081 25.8893Z" fill="#CACACA"/>
</svg>
