<svg width="70" height="70" viewBox="0 0 70 70" fill="none" xmlns="http://www.w3.org/2000/svg">
<mask id="mask0_1364_7920" style="mask-type:luminance" maskUnits="userSpaceOnUse" x="0" y="0" width="70" height="70">
<path d="M70 0H0V70H70V0Z" fill="white"/>
</mask>
<g mask="url(#mask0_1364_7920)">
<path d="M34.9998 69.9996C54.3297 69.9996 69.9996 54.3297 69.9996 34.9998C69.9996 15.67 54.3297 0 34.9998 0C15.6699 0 0 15.67 0 34.9998C0 54.3297 15.6699 69.9996 34.9998 69.9996Z" fill="#1AAF68"/>
<path d="M12.2268 56.0778L10.5342 57.7708L12.2275 59.4638L13.9198 57.7705L15.6128 56.0778L13.9198 54.3848L12.2268 56.0778Z" fill="white"/>
<path d="M54.6718 12.7937C54.421 12.8745 50.2144 14.2563 45.7959 16.3962L53.6032 24.2039C55.7432 19.7843 57.124 15.5774 57.2054 15.3277L58.4271 11.5723L54.6718 12.7937Z" fill="white"/>
<path d="M41.8369 18.5262L41.7963 18.485L40.2748 19.5324C40.2663 19.538 40.2575 19.5444 40.2494 19.5504L37.9983 21.1019L38.0431 21.1474C37.4398 21.6 36.8302 22.077 36.2185 22.5652L20.5531 38.2303L20.5502 38.2275L20.5481 38.2303L10.7204 38.0652L5.9043 42.8824L11.9329 48.9121L14.1427 44.7062L16.0548 42.0364L17.7933 41.8999C16.0093 44.4494 14.626 46.8243 13.773 48.8687L13.2184 50.1965L19.8009 56.7801L21.1302 56.2248C23.1742 55.3711 25.5487 53.9882 28.0979 52.2045L27.9621 53.9445L25.2912 55.8558L21.0865 58.0656L27.1158 64.0953L31.933 59.2788L31.7679 49.4504L31.7703 49.4483L31.7654 49.443L47.4492 33.7592C47.9311 33.1542 48.4028 32.552 48.8508 31.9558L48.8981 32.002L50.4662 29.7248C50.4813 29.703 50.4958 29.68 50.511 29.6581L51.5122 28.2033L51.4719 28.1634C51.812 27.6032 52.1401 27.0271 52.4569 26.4433L43.5563 17.543C42.9732 17.8588 42.3971 18.1872 41.8369 18.5262Z" fill="white"/>
</g>
</svg>
