<svg width="70" height="70" viewBox="0 0 70 70" fill="none" xmlns="http://www.w3.org/2000/svg">
<path d="M35 70C54.33 70 70 54.33 70 35C70 15.67 54.33 0 35 0C15.67 0 0 15.67 0 35C0 54.33 15.67 70 35 70Z" fill="white"/>
<path d="M38.0286 28.8307V18.2385C38.0286 16.4499 36.5791 15 34.7901 15C33.0012 15 31.5516 16.4496 31.5516 18.2385V28.8314L27.0798 24.3596L22.5 28.9394L34.7901 41.2288L47.0799 28.9394L42.5001 24.3596L38.0286 28.8307Z" fill="#186DFD"/>
<path d="M15 18V50H55V18" stroke="#186DFD" stroke-width="6.5" stroke-linecap="round"/>
</svg>
