<svg width="70" height="70" viewBox="0 0 70 70" fill="none" xmlns="http://www.w3.org/2000/svg">
<g clip-path="url(#clip0_1364_7921)">
<path d="M35 70C54.33 70 70 54.33 70 35C70 15.67 54.33 0 35 0C15.67 0 0 15.67 0 35C0 54.33 15.67 70 35 70Z" fill="#D53A9D"/>
<path d="M34.9086 9.52344C28.137 9.52344 21.7647 12.1657 16.9666 16.9646C12.1674 21.7638 9.52469 28.1357 9.52539 34.907C9.5261 48.9032 20.9135 60.2906 34.91 60.2913C41.682 60.2909 48.0543 57.6486 52.8521 52.8504C57.6509 48.0516 60.2936 41.679 60.294 34.9063C60.2936 20.9104 48.9066 9.52344 34.9086 9.52344ZM23.7893 23.7891C26.7661 20.8124 30.7141 19.1726 34.9054 19.1726H34.9097C37.4077 19.1726 39.8722 19.771 42.0859 20.909L20.911 42.0836C19.7719 39.8689 19.1732 37.4043 19.1743 34.907C19.1729 30.7131 20.8122 26.7652 23.7893 23.7891ZM46.0928 45.9614L46.0265 46.0277C43.0518 49.0037 39.1049 50.6424 34.904 50.6424C32.4092 50.6424 29.9464 50.0444 27.7338 48.9064L48.908 27.7315C50.0468 29.9462 50.6447 32.4111 50.644 34.9088C50.6454 39.0691 49.03 42.991 46.0928 45.9614Z" fill="white"/>
</g>
<defs>
<clipPath id="clip0_1364_7921">
<rect width="70" height="70" fill="white"/>
</clipPath>
</defs>
</svg>
