<svg width="264" height="60" viewBox="0 0 264 60" fill="none" xmlns="http://www.w3.org/2000/svg">
<path d="M76.8942 16.7541L81.7734 32.7342H81.9545L86.8338 16.7541H92.7358L85.3743 38.5723H78.3537L70.9922 16.7541H76.8942ZM100.76 38.8812C99.0417 38.8812 97.5645 38.5297 96.3287 37.8265C95.1 37.1163 94.1518 36.1291 93.4842 34.8649C92.8237 33.5936 92.4934 32.1199 92.4934 30.4437C92.4934 28.7605 92.8237 27.2868 93.4842 26.0225C94.1518 24.7512 95.1 23.764 96.3287 23.0609C97.5645 22.3507 99.0417 21.9956 100.76 21.9956C102.479 21.9956 103.953 22.3507 105.182 23.0609C106.417 23.764 107.366 24.7512 108.026 26.0225C108.694 27.2868 109.028 28.7605 109.028 30.4437C109.028 32.1199 108.694 33.5936 108.026 34.8649C107.366 36.1291 106.417 37.1163 105.182 37.8265C103.953 38.5297 102.479 38.8812 100.76 38.8812ZM100.792 34.9501C101.417 34.9501 101.947 34.7583 102.38 34.3748C102.813 33.9913 103.143 33.4586 103.371 32.7768C103.605 32.095 103.722 31.3066 103.722 30.4118C103.722 29.5027 103.605 28.7072 103.371 28.0254C103.143 27.3436 102.813 26.8109 102.38 26.4274C101.947 26.0439 101.417 25.8521 100.792 25.8521C100.146 25.8521 99.5993 26.0439 99.1518 26.4274C98.7115 26.8109 98.3741 27.3436 98.1397 28.0254C97.9125 28.7072 97.7988 29.5027 97.7988 30.4118C97.7988 31.3066 97.9125 32.095 98.1397 32.7768C98.3741 33.4586 98.7115 33.9913 99.1518 34.3748C99.5993 34.7583 100.146 34.9501 100.792 34.9501ZM120.933 22.2086V26.0439H110.61V22.2086H120.933ZM112.772 18.2882H117.982V33.4267C117.982 33.7463 118.031 34.0055 118.131 34.2044C118.237 34.3961 118.39 34.5346 118.589 34.6199C118.788 34.698 119.026 34.737 119.303 34.737C119.502 34.737 119.711 34.7193 119.931 34.6838C120.159 34.6412 120.329 34.6056 120.443 34.5772L121.231 38.3379C120.982 38.4089 120.631 38.4977 120.176 38.6042C119.729 38.7108 119.193 38.7782 118.568 38.8066C117.346 38.8635 116.298 38.7214 115.425 38.3805C114.558 38.0325 113.894 37.4927 113.433 36.7612C112.978 36.0297 112.758 35.1099 112.772 34.002V18.2882ZM131.064 38.8812C129.352 38.8812 127.875 38.5439 126.632 37.8691C125.396 37.1873 124.445 36.2179 123.777 34.9608C123.117 33.6966 122.786 32.1944 122.786 30.4544C122.786 28.764 123.12 27.2868 123.788 26.0225C124.455 24.7512 125.396 23.764 126.611 23.0609C127.825 22.3507 129.257 21.9956 130.904 21.9956C132.069 21.9956 133.134 22.1767 134.1 22.5389C135.066 22.9011 135.901 23.4373 136.604 24.1475C137.307 24.8578 137.854 25.7349 138.244 26.7789C138.635 27.8159 138.83 29.0055 138.83 30.3478V31.6475H124.608V28.622H133.983C133.976 28.068 133.845 27.5744 133.589 27.1412C133.333 26.7079 132.982 26.3706 132.534 26.1291C132.094 25.8805 131.586 25.7562 131.011 25.7562C130.428 25.7562 129.906 25.8876 129.445 26.1504C128.983 26.4061 128.617 26.7576 128.347 27.2051C128.078 27.6454 127.936 28.1461 127.921 28.7072V31.786C127.921 32.4537 128.053 33.0396 128.316 33.5439C128.578 34.041 128.951 34.4281 129.434 34.7051C129.917 34.9821 130.492 35.1206 131.16 35.1206C131.622 35.1206 132.041 35.0566 132.417 34.9288C132.794 34.801 133.117 34.6127 133.387 34.3642C133.656 34.1156 133.859 33.8102 133.994 33.448L138.777 33.5865C138.578 34.6589 138.142 35.5929 137.467 36.3883C136.799 37.1767 135.922 37.791 134.835 38.2314C133.749 38.6646 132.492 38.8812 131.064 38.8812ZM146.701 16.7541V38.5723H141.491V16.7541H146.701ZM150.017 38.5723V22.2086H155.226V38.5723H150.017ZM152.627 20.3017C151.895 20.3017 151.267 20.0602 150.741 19.5772C150.215 19.0872 149.953 18.4977 149.953 17.8088C149.953 17.127 150.215 16.5446 150.741 16.0616C151.267 15.5716 151.895 15.3265 152.627 15.3265C153.365 15.3265 153.994 15.5716 154.512 16.0616C155.038 16.5446 155.301 17.127 155.301 17.8088C155.301 18.4977 155.038 19.0872 154.512 19.5772C153.994 20.0602 153.365 20.3017 152.627 20.3017ZM158.585 38.5723V35.6L166.17 26.3635V26.2569H158.851V22.2086H172.381V25.4686L165.349 34.4174V34.524H172.636V38.5723H158.585ZM183.183 38.8812C181.472 38.8812 179.994 38.5439 178.751 37.8691C177.516 37.1873 176.564 36.2179 175.896 34.9608C175.236 33.6966 174.906 32.1944 174.906 30.4544C174.906 28.764 175.239 27.2868 175.907 26.0225C176.575 24.7512 177.516 23.764 178.73 23.0609C179.945 22.3507 181.376 21.9956 183.023 21.9956C184.188 21.9956 185.254 22.1767 186.219 22.5389C187.185 22.9011 188.02 23.4373 188.723 24.1475C189.426 24.8578 189.973 25.7349 190.364 26.7789C190.754 27.8159 190.95 29.0055 190.95 30.3478V31.6475H176.727V28.622H186.102C186.095 28.068 185.964 27.5744 185.708 27.1412C185.452 26.7079 185.101 26.3706 184.653 26.1291C184.213 25.8805 183.705 25.7562 183.13 25.7562C182.548 25.7562 182.026 25.8876 181.564 26.1504C181.102 26.4061 180.737 26.7576 180.467 27.2051C180.197 27.6454 180.055 28.1461 180.04 28.7072V31.786C180.04 32.4537 180.172 33.0396 180.435 33.5439C180.697 34.041 181.07 34.4281 181.553 34.7051C182.036 34.9821 182.612 35.1206 183.279 35.1206C183.741 35.1206 184.16 35.0566 184.536 34.9288C184.913 34.801 185.236 34.6127 185.506 34.3642C185.776 34.1156 185.978 33.8102 186.113 33.448L190.896 33.5865C190.697 34.6589 190.261 35.5929 189.586 36.3883C188.918 37.1767 188.041 37.791 186.955 38.2314C185.868 38.6646 184.611 38.8812 183.183 38.8812ZM193.61 38.5723V22.2086H198.671V25.1916H198.841C199.139 24.112 199.626 23.3095 200.301 22.7839C200.975 22.2512 201.76 21.9849 202.655 21.9849C202.896 21.9849 203.145 22.0027 203.401 22.0382C203.656 22.0666 203.894 22.1127 204.115 22.1767V26.7044C203.866 26.6191 203.539 26.5517 203.134 26.502C202.737 26.4522 202.382 26.4274 202.069 26.4274C201.451 26.4274 200.894 26.5659 200.396 26.8429C199.906 27.1127 199.519 27.4927 199.235 27.9828C198.958 28.4657 198.82 29.0339 198.82 29.6873V38.5723H193.61Z" fill="white"/>
<path d="M30.0008 34.3958L43.7047 3.30628C39.5973 1.19329 34.9385 0 30.0013 0C25.0636 0 20.4048 1.19355 16.2969 3.30681L30.0008 34.3958Z" fill="#186DFD"/>
<path d="M52.2717 9.90039L44.4043 27.7492H49.8473C51.0898 27.7492 52.0974 28.7567 52.0974 29.9992C52.0974 31.2417 51.0898 32.2493 49.8473 32.2493H42.4207L34.8041 49.5287C33.9648 51.4324 32.0807 52.6611 30 52.6611C27.9193 52.6611 26.0352 51.4324 25.1959 49.5287L17.5793 32.2493H10.1532C8.91044 32.2493 7.90316 31.2417 7.90316 29.9992C7.90316 28.7567 8.91044 27.7492 10.1532 27.7492H15.5957L7.72854 9.90119C2.92552 15.2205 0 22.268 0 29.9995C0 46.5682 13.4319 59.9997 30.0005 59.9997C46.5694 59.9997 60.0005 46.5682 60.0005 29.9995C60.0005 22.2677 57.075 15.2199 52.2717 9.90039Z" fill="#186DFD"/>
</svg>
