<svg width="70" height="70" viewBox="0 0 70 70" fill="none" xmlns="http://www.w3.org/2000/svg">
<path d="M69.9996 35.0002C69.9996 15.6703 54.3297 0.000356207 34.9998 0.000357052C15.67 0.000357897 -2.37483e-06 15.6703 -1.52989e-06 35.0002C-6.84955e-07 54.3301 15.67 70 34.9998 70C54.3297 70 69.9996 54.33 69.9996 35.0002Z" fill="white"/>
<path d="M38.3801 23.8938C37.1109 22.6246 37.1109 20.5668 38.3801 19.2976C39.6493 18.0284 41.7071 18.0284 42.9763 19.2976L58.3561 34.6774L53.7599 39.2736L38.3801 23.8938Z" fill="#186DFD"/>
<path d="M42.9758 50.0574C41.7066 51.3266 39.6488 51.3266 38.3796 50.0574C37.1104 48.7882 37.1104 46.7304 38.3796 45.4612L53.7592 30.0816L58.3554 34.6778L42.9758 50.0574Z" fill="#186DFD"/>
<path d="M30.9753 45.4617C32.2445 46.7309 32.2445 48.7887 30.9753 50.0579C29.7061 51.3271 27.6484 51.3271 26.3791 50.0579L10.9993 34.6781L15.5955 30.0819L30.9753 45.4617Z" fill="#186DFD"/>
<path d="M26.3796 19.2981C27.6488 18.0289 29.7066 18.0289 30.9758 19.2981C32.245 20.5673 32.245 22.6251 30.9758 23.8943L15.5963 39.2739L11.0001 34.6777L26.3796 19.2981Z" fill="#186DFD"/>
</svg>
